<svg width="49" height="50" viewBox="0 0 49 50" fill="none" xmlns="http://www.w3.org/2000/svg">
<g clip-path="url(#clip0_68_895)">
<path d="M10.64 49.7601H0V39.1201H3.52V46.2401H10.64V49.7601Z" fill="#959798"/>
<path d="M3.52 11.5199H0V0.879883H10.64V4.39988H3.52V11.5199Z" fill="#959798"/>
<path d="M48.8802 11.5199H45.3602V4.39988H38.2402V0.879883H48.8802V11.5199Z" fill="#959798"/>
<path d="M48.8802 49.7601H38.2402V46.2401H45.3602V39.1201H48.8802V49.7601Z" fill="#959798"/>
<path d="M37.9105 20.6698L33.9105 16.4898L31.2805 19.2398L32.8105 20.8398L33.9105 19.6898L34.8505 20.6698L19.7905 36.4198H22.8505L37.9105 20.6698ZM29.1805 14.5098H26.1205L11.0605 30.2598L15.0605 34.4398L17.6905 31.6898L16.1605 30.0898L15.0605 31.2398L14.1205 30.2598L29.1805 14.5098ZM22.8505 14.5098H19.7905L34.8505 30.2598L33.9105 31.2398L32.8105 30.0898L31.2805 31.6898L33.9105 34.4398L37.9105 30.2598L22.8505 14.5098ZM14.1205 20.6698L15.0605 19.6898L16.1605 20.8398L17.6905 19.2398L15.0605 16.4898L11.0605 20.6698L26.1205 36.4198H29.1805L14.1205 20.6698ZM40.9405 25.4698L38.2505 22.9798L35.5605 25.4698L38.2505 27.9598L40.9405 25.4698Z" fill="#0C5073"/>
<path d="M27.1703 25.4695L24.4803 22.9795L21.7903 25.4695L24.4803 27.9595L27.1703 25.4695ZM8.03027 25.4695L10.7203 22.9795L13.4103 25.4695L10.7203 27.9595L8.03027 25.4695Z" fill="#0C5073"/>
<path d="M38.2505 27.4595L36.1005 25.4695L38.2505 23.4795L40.4005 25.4695L38.2505 27.4595ZM24.4805 27.4595L22.3305 25.4695L24.4805 23.4795L26.6305 25.4695L24.4805 27.4595ZM10.7105 27.4595L12.8605 25.4695L10.7105 23.4795L8.56055 25.4695L10.7105 27.4595Z" fill="white"/>
</g>
<defs>
<clipPath id="clip0_68_895">
<rect width="48.88" height="48.88" fill="white" transform="translate(0 0.879883)"/>
</clipPath>
</defs>
</svg>
